<?xml version="1.0" standalone="no"?>
<!DOCTYPE svg PUBLIC "-//W3C//DTD SVG 20010904//EN"
 "http://www.w3.org/TR/2001/REC-SVG-20010904/DTD/svg10.dtd">
<svg version="1.0" xmlns="http://www.w3.org/2000/svg"
 width="700.000000pt" height="700.000000pt" viewBox="0 0 700.000000 700.000000"
 preserveAspectRatio="xMidYMid meet">
<metadata>
Created by potrace 1.11, written by Peter Selinger 2001-2013
</metadata>
<g transform="translate(0.000000,700.000000) scale(0.100000,-0.100000)"
fill="#000000" stroke="none">
<path d="M2895 6993 c-11 -3 -38 -18 -61 -34 -73 -50 -105 -160 -70 -243 16
-39 69 -93 106 -109 14 -7 112 -14 225 -17 l200 -5 0 -257 c0 -223 -2 -258
-15 -259 -37 -2 -190 -20 -215 -25 -10 -2 -37 -6 -60 -9 -22 -4 -69 -13 -105
-21 -36 -9 -74 -17 -84 -19 -186 -39 -520 -172 -706 -281 -74 -43 -56 -53
-155 90 -33 48 -97 139 -142 203 l-82 116 142 99 c165 115 219 168 237 232 14
52 8 128 -16 174 -17 35 -70 91 -124 131 -19 14 -37 29 -40 32 -3 4 -41 25
-85 47 -310 156 -680 104 -931 -130 -128 -121 -208 -262 -250 -447 -13 -58
-12 -252 2 -314 41 -174 88 -253 178 -299 44 -23 134 -27 181 -8 27 10 132 76
145 91 3 3 55 39 115 81 l111 76 156 -221 156 -222 -62 -55 c-65 -58 -257
-251 -291 -291 -260 -312 -433 -618 -549 -969 -39 -120 -85 -301 -101 -400 -3
-19 -7 -46 -10 -60 -27 -141 -37 -460 -22 -660 11 -136 15 -170 43 -314 57
-292 165 -590 303 -831 15 -27 38 -68 51 -90 123 -219 390 -528 628 -727 l31
-26 -233 -349 c-128 -191 -241 -364 -251 -382 -42 -83 -6 -203 77 -259 35 -23
52 -27 109 -27 111 0 116 5 394 422 239 358 242 362 266 349 209 -112 320
-162 489 -219 109 -38 319 -94 380 -103 19 -2 45 -7 56 -9 157 -34 518 -50
729 -33 360 30 721 134 1050 303 l140 72 150 -226 c83 -124 153 -228 158 -229
4 -2 7 -7 7 -12 0 -11 146 -227 174 -258 36 -40 76 -56 148 -56 58 -1 71 3
109 29 79 56 115 176 75 253 -8 16 -121 188 -250 382 l-235 352 62 51 c123
102 300 287 408 427 387 500 589 1079 593 1700 1 247 -10 388 -49 595 -85 451
-319 932 -627 1290 -57 67 -239 249 -309 311 l-57 49 110 155 c60 85 130 185
156 222 l47 66 165 -115 c91 -64 180 -122 199 -130 79 -33 196 -9 256 53 35
37 78 130 100 219 19 74 26 242 13 330 -37 253 -229 501 -470 608 -122 55
-180 68 -316 73 -218 8 -420 -69 -588 -222 -100 -91 -108 -262 -16 -348 15
-15 93 -73 174 -129 l146 -104 -129 -184 c-72 -101 -141 -201 -154 -221 l-24
-37 -163 83 c-90 45 -188 92 -218 104 -269 105 -464 155 -744 191 l-128 16 0
215 c0 118 1 234 1 258 l1 42 193 0 c184 0 196 1 238 23 65 35 102 93 107 170
5 78 -23 137 -86 182 l-44 30 -601 1 c-331 1 -611 0 -622 -3z"/>
</g>
</svg>
